<mxfile host="drawio-plugin" modified="2022-04-03T09:30:38.770Z" agent="5.0 (X11; Linux x86_64) AppleWebKit/537.36 (KHTML, like Gecko) Chrome/89.0.4389.114 Safari/537.36" etag="hqWhhXehy9_L0AK6Agwq" version="15.5.4" type="embed"><diagram id="ioIJB4VWu9_FbnMtDTSG" name="Page-1"><mxGraphModel dx="1376" dy="1835" grid="1" gridSize="10" guides="1" tooltips="1" connect="1" arrows="1" fold="1" page="1" pageScale="1" pageWidth="827" pageHeight="1169" math="0" shadow="0"><root><mxCell id="0"/><mxCell id="1" parent="0"/><mxCell id="4" value="SSH Deploy" style="text;html=1;align=center;verticalAlign=middle;resizable=0;points=[];autosize=1;strokeColor=none;fillColor=none;" parent="1" vertex="1"><mxGeometry x="310" y="90" width="80" height="20" as="geometry"/></mxCell><mxCell id="8" style="edgeStyle=orthogonalEdgeStyle;rounded=0;orthogonalLoop=1;jettySize=auto;html=1;entryX=0.5;entryY=1;entryDx=0;entryDy=0;" parent="1" source="7" target="6" edge="1"><mxGeometry relative="1" as="geometry"/></mxCell><mxCell id="9" value="Private key" style="edgeLabel;html=1;align=center;verticalAlign=middle;resizable=0;points=[];" parent="8" vertex="1" connectable="0"><mxGeometry x="0.2352" y="1" relative="1" as="geometry"><mxPoint as="offset"/></mxGeometry></mxCell><mxCell id="7" value="Actor" style="shape=umlActor;verticalLabelPosition=bottom;verticalAlign=top;html=1;outlineConnect=0;" parent="1" vertex="1"><mxGeometry x="450" y="440" width="30" height="60" as="geometry"/></mxCell><mxCell id="13" style="edgeStyle=orthogonalEdgeStyle;rounded=0;orthogonalLoop=1;jettySize=auto;html=1;" parent="1" source="10" target="7" edge="1"><mxGeometry relative="1" as="geometry"/></mxCell><mxCell id="10" value="code/docker/zips/wars/jars" style="shape=process;whiteSpace=wrap;html=1;backgroundOutline=1;" parent="1" vertex="1"><mxGeometry x="220" y="440" width="190" height="60" as="geometry"/></mxCell><mxCell id="12" style="edgeStyle=orthogonalEdgeStyle;rounded=0;orthogonalLoop=1;jettySize=auto;html=1;entryX=0;entryY=0.5;entryDx=0;entryDy=0;" parent="1" source="11" target="10" edge="1"><mxGeometry relative="1" as="geometry"/></mxCell><mxCell id="11" value="development team" style="ellipse;whiteSpace=wrap;html=1;" parent="1" vertex="1"><mxGeometry x="40" y="430" width="120" height="80" as="geometry"/></mxCell><mxCell id="14" value="" style="group" parent="1" vertex="1" connectable="0"><mxGeometry x="310" y="140" width="310" height="180" as="geometry"/></mxCell><mxCell id="5" value="Pre-configured Server serving traffic" style="rounded=1;whiteSpace=wrap;html=1;" parent="14" vertex="1"><mxGeometry width="310" height="180" as="geometry"/></mxCell><mxCell id="6" value="Public Key" style="rounded=1;whiteSpace=wrap;html=1;" parent="14" vertex="1"><mxGeometry x="190" y="120" width="120" height="60" as="geometry"/></mxCell><mxCell id="15" value="" style="endArrow=none;dashed=1;html=1;dashPattern=1 3;strokeWidth=2;rounded=0;" parent="1" edge="1"><mxGeometry width="50" height="50" relative="1" as="geometry"><mxPoint x="720" y="520" as="sourcePoint"/><mxPoint x="720" y="80" as="targetPoint"/></mxGeometry></mxCell><mxCell id="16" value="Pull based deploy" style="text;html=1;align=center;verticalAlign=middle;resizable=0;points=[];autosize=1;strokeColor=none;fillColor=none;" parent="1" vertex="1"><mxGeometry x="880" y="80" width="110" height="20" as="geometry"/></mxCell><mxCell id="18" value="redis/&lt;br&gt;kv db" style="shape=cylinder3;whiteSpace=wrap;html=1;boundedLbl=1;backgroundOutline=1;size=15;" parent="1" vertex="1"><mxGeometry x="1300" y="140" width="70" height="90" as="geometry"/></mxCell><mxCell id="20" style="edgeStyle=orthogonalEdgeStyle;rounded=0;orthogonalLoop=1;jettySize=auto;html=1;entryX=0;entryY=0.5;entryDx=0;entryDy=0;entryPerimeter=0;" parent="1" source="19" target="18" edge="1"><mxGeometry relative="1" as="geometry"/></mxCell><mxCell id="21" value="scan" style="edgeLabel;html=1;align=center;verticalAlign=middle;resizable=0;points=[];" parent="20" vertex="1" connectable="0"><mxGeometry x="0.3623" relative="1" as="geometry"><mxPoint as="offset"/></mxGeometry></mxCell><mxCell id="40" style="edgeStyle=orthogonalEdgeStyle;rounded=0;orthogonalLoop=1;jettySize=auto;html=1;entryX=0.5;entryY=1;entryDx=0;entryDy=0;entryPerimeter=0;" parent="1" source="23" target="18" edge="1"><mxGeometry relative="1" as="geometry"/></mxCell><mxCell id="41" value="uploads a new version / commit SHA" style="edgeLabel;html=1;align=center;verticalAlign=middle;resizable=0;points=[];" parent="40" vertex="1" connectable="0"><mxGeometry x="0.5049" y="-2" relative="1" as="geometry"><mxPoint as="offset"/></mxGeometry></mxCell><mxCell id="23" value="Actor" style="shape=umlActor;verticalLabelPosition=bottom;verticalAlign=top;html=1;outlineConnect=0;" parent="1" vertex="1"><mxGeometry x="1320" y="380" width="30" height="60" as="geometry"/></mxCell><mxCell id="43" style="edgeStyle=orthogonalEdgeStyle;rounded=0;orthogonalLoop=1;jettySize=auto;html=1;" parent="1" source="25" target="42" edge="1"><mxGeometry relative="1" as="geometry"/></mxCell><mxCell id="25" value="code/docker/zips/wars/jars" style="shape=process;whiteSpace=wrap;html=1;backgroundOutline=1;" parent="1" vertex="1"><mxGeometry x="1020" y="510" width="190" height="60" as="geometry"/></mxCell><mxCell id="26" style="edgeStyle=orthogonalEdgeStyle;rounded=0;orthogonalLoop=1;jettySize=auto;html=1;entryX=0;entryY=0.5;entryDx=0;entryDy=0;" parent="1" source="27" target="25" edge="1"><mxGeometry relative="1" as="geometry"/></mxCell><mxCell id="44" value="build code" style="edgeLabel;html=1;align=center;verticalAlign=middle;resizable=0;points=[];" parent="26" vertex="1" connectable="0"><mxGeometry x="-0.3399" y="1" relative="1" as="geometry"><mxPoint as="offset"/></mxGeometry></mxCell><mxCell id="45" style="edgeStyle=orthogonalEdgeStyle;rounded=0;orthogonalLoop=1;jettySize=auto;html=1;" parent="1" source="27" target="23" edge="1"><mxGeometry relative="1" as="geometry"/></mxCell><mxCell id="47" value="version code" style="edgeLabel;html=1;align=center;verticalAlign=middle;resizable=0;points=[];" parent="45" vertex="1" connectable="0"><mxGeometry x="0.3517" relative="1" as="geometry"><mxPoint as="offset"/></mxGeometry></mxCell><mxCell id="27" value="development team" style="ellipse;whiteSpace=wrap;html=1;" parent="1" vertex="1"><mxGeometry x="860" y="400" width="120" height="80" as="geometry"/></mxCell><mxCell id="28" value="" style="group" parent="1" vertex="1" connectable="0"><mxGeometry x="1010" y="140" width="180" height="120" as="geometry"/></mxCell><mxCell id="17" value="" style="rounded=1;whiteSpace=wrap;html=1;" parent="28" vertex="1"><mxGeometry width="180" height="120" as="geometry"/></mxCell><mxCell id="19" value="agent" style="whiteSpace=wrap;html=1;" parent="28" vertex="1"><mxGeometry x="120" width="60" height="40" as="geometry"/></mxCell><mxCell id="29" value="" style="group" parent="28" vertex="1" connectable="0"><mxGeometry x="-10" y="-10" width="180" height="120" as="geometry"/></mxCell><mxCell id="30" value="" style="rounded=1;whiteSpace=wrap;html=1;" parent="29" vertex="1"><mxGeometry width="180" height="120" as="geometry"/></mxCell><mxCell id="31" value="agent" style="whiteSpace=wrap;html=1;" parent="29" vertex="1"><mxGeometry x="120" width="60" height="40" as="geometry"/></mxCell><mxCell id="32" value="" style="group" parent="29" vertex="1" connectable="0"><mxGeometry width="180" height="120" as="geometry"/></mxCell><mxCell id="33" value="" style="rounded=1;whiteSpace=wrap;html=1;" parent="32" vertex="1"><mxGeometry width="180" height="120" as="geometry"/></mxCell><mxCell id="34" value="agent" style="whiteSpace=wrap;html=1;" parent="32" vertex="1"><mxGeometry x="120" width="60" height="40" as="geometry"/></mxCell><mxCell id="35" value="" style="group" parent="32" vertex="1" connectable="0"><mxGeometry x="-10" y="-10" width="180" height="120" as="geometry"/></mxCell><mxCell id="36" value="" style="rounded=1;whiteSpace=wrap;html=1;" parent="35" vertex="1"><mxGeometry width="180" height="120" as="geometry"/></mxCell><mxCell id="37" value="agent" style="whiteSpace=wrap;html=1;" parent="35" vertex="1"><mxGeometry x="120" width="60" height="40" as="geometry"/></mxCell><mxCell id="39" style="edgeStyle=orthogonalEdgeStyle;rounded=0;orthogonalLoop=1;jettySize=auto;html=1;entryX=0;entryY=0.5;entryDx=0;entryDy=0;entryPerimeter=0;" parent="1" source="34" target="18" edge="1"><mxGeometry relative="1" as="geometry"/></mxCell><mxCell id="48" style="edgeStyle=orthogonalEdgeStyle;rounded=0;orthogonalLoop=1;jettySize=auto;html=1;entryX=0.5;entryY=0;entryDx=0;entryDy=0;" parent="1" source="42" target="36" edge="1"><mxGeometry relative="1" as="geometry"><Array as="points"><mxPoint x="1500" y="540"/><mxPoint x="1500" y="100"/><mxPoint x="1080" y="100"/></Array></mxGeometry></mxCell><mxCell id="49" value="agent pulls new code" style="edgeLabel;html=1;align=center;verticalAlign=middle;resizable=0;points=[];" parent="48" vertex="1" connectable="0"><mxGeometry x="-0.0029" y="-4" relative="1" as="geometry"><mxPoint as="offset"/></mxGeometry></mxCell><mxCell id="42" value="Build artifact registry" style="shape=cylinder3;whiteSpace=wrap;html=1;boundedLbl=1;backgroundOutline=1;size=15;" parent="1" vertex="1"><mxGeometry x="1305" y="500" width="60" height="80" as="geometry"/></mxCell><mxCell id="50" value="" style="rounded=1;whiteSpace=wrap;html=1;" parent="1" vertex="1"><mxGeometry x="340" y="-390" width="120" height="60" as="geometry"/></mxCell><mxCell id="51" value="" style="rounded=1;whiteSpace=wrap;html=1;" parent="1" vertex="1"><mxGeometry x="350" y="-380" width="120" height="60" as="geometry"/></mxCell><mxCell id="54" style="edgeStyle=orthogonalEdgeStyle;rounded=0;orthogonalLoop=1;jettySize=auto;html=1;entryX=0;entryY=0.5;entryDx=0;entryDy=0;entryPerimeter=0;startArrow=classic;startFill=1;" parent="1" source="52" target="53" edge="1"><mxGeometry relative="1" as="geometry"/></mxCell><mxCell id="52" value="servers" style="rounded=1;whiteSpace=wrap;html=1;" parent="1" vertex="1"><mxGeometry x="360" y="-370" width="120" height="60" as="geometry"/></mxCell><mxCell id="53" value="DB" style="shape=cylinder3;whiteSpace=wrap;html=1;boundedLbl=1;backgroundOutline=1;size=15;" parent="1" vertex="1"><mxGeometry x="580" y="-390" width="60" height="80" as="geometry"/></mxCell><mxCell id="56" value="" style="edgeStyle=orthogonalEdgeStyle;rounded=0;orthogonalLoop=1;jettySize=auto;html=1;startArrow=classic;startFill=1;" parent="1" source="55" target="52" edge="1"><mxGeometry relative="1" as="geometry"/></mxCell><mxCell id="57" value="" style="edgeStyle=orthogonalEdgeStyle;rounded=0;orthogonalLoop=1;jettySize=auto;html=1;startArrow=classic;startFill=1;" parent="1" source="55" target="52" edge="1"><mxGeometry relative="1" as="geometry"/></mxCell><mxCell id="55" value="Loadbalancer" style="shape=process;whiteSpace=wrap;html=1;backgroundOutline=1;" parent="1" vertex="1"><mxGeometry x="150" y="-380" width="120" height="60" as="geometry"/></mxCell><mxCell id="61" style="edgeStyle=orthogonalEdgeStyle;rounded=0;orthogonalLoop=1;jettySize=auto;html=1;entryX=0;entryY=0.5;entryDx=0;entryDy=0;" edge="1" parent="1" source="58" target="55"><mxGeometry relative="1" as="geometry"/></mxCell><mxCell id="58" value="users&lt;br&gt;" style="shape=umlActor;verticalLabelPosition=bottom;verticalAlign=top;html=1;outlineConnect=0;" vertex="1" parent="1"><mxGeometry x="40" y="-360" width="30" height="60" as="geometry"/></mxCell><mxCell id="64" value="General architecture" style="text;html=1;align=center;verticalAlign=middle;resizable=0;points=[];autosize=1;strokeColor=none;fillColor=none;" vertex="1" parent="1"><mxGeometry x="80" y="-490" width="120" height="20" as="geometry"/></mxCell></root></mxGraphModel></diagram></mxfile>